<svg id="visual" viewBox="0 0 1280 400" width="1280" height="400" xmlns="http://www.w3.org/2000/svg" xmlns:xlink="http://www.w3.org/1999/xlink" version="1.1"><rect x="0" y="0" width="1280" height="400" fill="#001220"></rect><path d="M0 174L106.7 195.3C213.3 216.7 426.7 259.3 640 270.7C853.3 282 1066.7 262 1173.3 252L1280 242L1280 0L1173.3 0C1066.7 0 853.3 0 640 0C426.7 0 213.3 0 106.7 0L0 0Z" fill="#fa7268"></path><path d="M0 200L106.7 210.7C213.3 221.3 426.7 242.7 640 231.2C853.3 219.7 1066.7 175.3 1173.3 153.2L1280 131L1280 0L1173.3 0C1066.7 0 853.3 0 640 0C426.7 0 213.3 0 106.7 0L0 0Z" fill="#e34c67"></path><path d="M0 32L106.7 35.2C213.3 38.3 426.7 44.7 640 68.2C853.3 91.7 1066.7 132.3 1173.3 152.7L1280 173L1280 0L1173.3 0C1066.7 0 853.3 0 640 0C426.7 0 213.3 0 106.7 0L0 0Z" fill="#c62368"></path></svg>