<svg id="visual" viewBox="0 0 900 400" width="900" height="400" xmlns="http://www.w3.org/2000/svg" xmlns:xlink="http://www.w3.org/1999/xlink" version="1.1"><rect x="0" y="0" width="900" height="400" fill="#001220"></rect><path d="M0 250L25 243C50 236 100 222 150 219.3C200 216.7 250 225.3 300 238.8C350 252.3 400 270.7 450 278.8C500 287 550 285 600 285.5C650 286 700 289 750 293.7C800 298.3 850 304.7 875 307.8L900 311L900 401L875 401C850 401 800 401 750 401C700 401 650 401 600 401C550 401 500 401 450 401C400 401 350 401 300 401C250 401 200 401 150 401C100 401 50 401 25 401L0 401Z" fill="#fa7268"></path><path d="M0 313L25 308.2C50 303.3 100 293.7 150 295C200 296.3 250 308.7 300 312.2C350 315.7 400 310.3 450 299.5C500 288.7 550 272.3 600 273.5C650 274.7 700 293.3 750 293.8C800 294.3 850 276.7 875 267.8L900 259L900 401L875 401C850 401 800 401 750 401C700 401 650 401 600 401C550 401 500 401 450 401C400 401 350 401 300 401C250 401 200 401 150 401C100 401 50 401 25 401L0 401Z" fill="#ef5f67"></path><path d="M0 274L25 272.8C50 271.7 100 269.3 150 281.7C200 294 250 321 300 328.5C350 336 400 324 450 316.7C500 309.3 550 306.7 600 304.2C650 301.7 700 299.3 750 307.5C800 315.7 850 334.3 875 343.7L900 353L900 401L875 401C850 401 800 401 750 401C700 401 650 401 600 401C550 401 500 401 450 401C400 401 350 401 300 401C250 401 200 401 150 401C100 401 50 401 25 401L0 401Z" fill="#e34c67"></path><path d="M0 355L25 356.3C50 357.7 100 360.3 150 354.5C200 348.7 250 334.3 300 336.8C350 339.3 400 358.7 450 364.7C500 370.7 550 363.3 600 351.2C650 339 700 322 750 320.2C800 318.3 850 331.7 875 338.3L900 345L900 401L875 401C850 401 800 401 750 401C700 401 650 401 600 401C550 401 500 401 450 401C400 401 350 401 300 401C250 401 200 401 150 401C100 401 50 401 25 401L0 401Z" fill="#d53867"></path><path d="M0 388L25 384.3C50 380.7 100 373.3 150 372C200 370.7 250 375.3 300 379C350 382.7 400 385.3 450 380.5C500 375.7 550 363.3 600 354.7C650 346 700 341 750 344.2C800 347.3 850 358.7 875 364.3L900 370L900 401L875 401C850 401 800 401 750 401C700 401 650 401 600 401C550 401 500 401 450 401C400 401 350 401 300 401C250 401 200 401 150 401C100 401 50 401 25 401L0 401Z" fill="#c62368"></path></svg>